ffmpeg version 6.1.1-3ubuntu5 Copyright (c) 2000-2023 the FFmpeg developers
  built with gcc 13 (Ubuntu 13.2.0-23ubuntu3)
  configuration: --prefix=/usr --extra-version=3ubuntu5 --toolchain=hardened --libdir=/usr/lib/x86_64-linux-gnu --incdir=/usr/include/x86_64-linux-gnu --arch=amd64 --enable-gpl --disable-stripping --disable-omx --enable-gnutls --enable-libaom --enable-libass --enable-libbs2b --enable-libcaca --enable-libcdio --enable-libcodec2 --enable-libdav1d --enable-libflite --enable-libfontconfig --enable-libfreetype --enable-libfribidi --enable-libglslang --enable-libgme --enable-libgsm --enable-libharfbuzz --enable-libmp3lame --enable-libmysofa --enable-libopenjpeg --enable-libopenmpt --enable-libopus --enable-librubberband --enable-libshine --enable-libsnappy --enable-libsoxr --enable-libspeex --enable-libtheora --enable-libtwolame --enable-libvidstab --enable-libvorbis --enable-libvpx --enable-libwebp --enable-libx265 --enable-libxml2 --enable-libxvid --enable-libzimg --enable-openal --enable-opencl --enable-opengl --disable-sndio --enable-libvpl --disable-libmfx --enable-libdc1394 --enable-libdrm --enable-libiec61883 --enable-chromaprint --enable-frei0r --enable-ladspa --enable-libbluray --enable-libjack --enable-libpulse --enable-librabbitmq --enable-librist --enable-libsrt --enable-libssh --enable-libsvtav1 --enable-libx264 --enable-libzmq --enable-libzvbi --enable-lv2 --enable-sdl2 --enable-libplacebo --enable-librav1e --enable-pocketsphinx --enable-librsvg --enable-libjxl --enable-shared
  libavutil      58. 29.100 / 58. 29.100
  libavcodec     60. 31.102 / 60. 31.102
  libavformat    60. 16.100 / 60. 16.100
  libavdevice    60.  3.100 / 60.  3.100
  libavfilter     9. 12.100 /  9. 12.100
  libswscale      7.  5.100 /  7.  5.100
  libswresample   4. 12.100 /  4. 12.100
  libpostproc    57.  3.100 / 57.  3.100
Input #0, video4linux2,v4l2, from '/dev/video0':
  Duration: N/A, start: 4893.586115, bitrate: 147456 kb/s
  Stream #0:0: Video: rawvideo (YUY2 / 0x32595559), yuyv422, 640x480, 147456 kb/s, 30 fps, 30 tbr, 1000k tbn
Stream mapping:
  Stream #0:0 -> #0:0 (rawvideo (native) -> h264 (libx264))
Press [q] to stop, [?] for help
[libx264 @ 0x582dc473f1c0] using cpu capabilities: MMX2 SSE2Fast SSSE3 SSE4.2 AVX FMA3 BMI2 AVX2
[libx264 @ 0x582dc473f1c0] profile Constrained Baseline, level 3.1, 4:2:0, 8-bit
Output #0, h264, to 'pipe:':
  Metadata:
    encoder         : Lavf60.16.100
  Stream #0:0: Video: h264, yuv420p(tv, progressive), 640x480, q=2-31, 30 fps, 30 tbn
    Metadata:
      encoder         : Lavc60.31.102 libx264
    Side data:
      cpb: bitrate max/min/avg: 0/0/0 buffer size: 0 vbv_delay: N/A
frame=    0 fps=0.0 q=20.0 size=       0kB time=00:00:00.00 bitrate=N/A speed=N/A    frame=   18 fps=0.0 q=24.0 size=     154kB time=00:00:00.60 bitrate=2103.0kbits/s dup=2 drop=0 speed=1.19x    frame=   33 fps= 33 q=24.0 size=     289kB time=00:00:01.10 bitrate=2152.3kbits/s dup=2 drop=0 speed=1.08x    frame=   49 fps= 32 q=23.0 size=     414kB time=00:00:01.63 bitrate=2076.1kbits/s dup=2 drop=0 speed=1.06x    frame=   64 fps= 31 q=24.0 size=     555kB time=00:00:02.13 bitrate=2131.0kbits/s dup=2 drop=0 speed=1.04x    frame=   79 fps= 31 q=24.0 size=     669kB time=00:00:02.63 bitrate=2082.4kbits/s dup=2 drop=0 speed=1.03x    frame=   94 fps= 31 q=24.0 size=     807kB time=00:00:03.13 bitrate=2110.1kbits/s dup=2 drop=0 speed=1.03x    frame=  110 fps= 31 q=24.0 size=     932kB time=00:00:03.66 bitrate=2082.6kbits/s dup=2 drop=0 speed=1.02x    frame=  125 fps= 31 q=24.0 size=    1079kB time=00:00:04.16 bitrate=2122.0kbits/s dup=2 drop=0 speed=1.02x    frame=  140 fps= 30 q=24.0 size=    1189kB time=00:00:04.66 bitrate=2087.7kbits/s dup=2 drop=0 speed=1.02x    frame=  156 fps= 30 q=24.0 size=    1334kB time=00:00:05.20 bitrate=2101.9kbits/s dup=2 drop=0 speed=1.02x    frame=  172 fps= 31 q=24.0 size=    1469kB time=00:00:05.73 bitrate=2098.4kbits/s dup=3 drop=0 speed=1.02x    frame=  188 fps= 30 q=24.0 size=    1622kB time=00:00:06.26 bitrate=2120.2kbits/s dup=3 drop=0 speed=1.02x    frame=  204 fps= 30 q=24.0 size=    1765kB time=00:00:06.80 bitrate=2126.7kbits/s dup=3 drop=0 speed=1.01x    frame=  220 fps= 30 q=24.0 size=    1931kB time=00:00:07.33 bitrate=2156.9kbits/s dup=3 drop=0 speed=1.01x    frame=  235 fps= 30 q=23.0 size=    2046kB time=00:00:07.83 bitrate=2139.9kbits/s dup=3 drop=0 speed=1.01x    frame=  251 fps= 30 q=23.0 size=    2207kB time=00:00:08.36 bitrate=2161.2kbits/s dup=3 drop=0 speed=1.01x    frame=  266 fps= 30 q=24.0 size=    2326kB time=00:00:08.86 bitrate=2148.7kbits/s dup=3 drop=0 speed=1.01x    frame=  281 fps= 30 q=24.0 size=    2465kB time=00:00:09.36 bitrate=2155.6kbits/s dup=3 drop=0 speed=1.01x    frame=  296 fps= 30 q=24.0 size=    2595kB time=00:00:09.86 bitrate=2154.8kbits/s dup=3 drop=0 speed=1.01x    frame=  311 fps= 30 q=26.0 size=    2751kB time=00:00:10.36 bitrate=2174.0kbits/s dup=3 drop=0 speed=1.01x    frame=  326 fps= 30 q=24.0 size=    2908kB time=00:00:10.86 bitrate=2192.2kbits/s dup=3 drop=0 speed=1.01x    frame=  341 fps= 30 q=26.0 size=    3079kB time=00:00:11.36 bitrate=2219.2kbits/s dup=3 drop=0 speed=1.01x    frame=  356 fps= 30 q=25.0 size=    3228kB time=00:00:11.86 bitrate=2228.4kbits/s dup=3 drop=0 speed=1.01x    frame=  372 fps= 30 q=24.0 size=    3394kB time=00:00:12.40 bitrate=2242.5kbits/s dup=3 drop=0 speed=1.01x    frame=  388 fps= 30 q=23.0 size=    3548kB time=00:00:12.93 bitrate=2247.5kbits/s dup=4 drop=0 speed=1.01x    frame=  403 fps= 30 q=24.0 size=    3710kB time=00:00:13.43 bitrate=2262.7kbits/s dup=4 drop=0 speed=1.01x    frame=  419 fps= 30 q=24.0 size=    3863kB time=00:00:13.96 bitrate=2265.5kbits/s dup=4 drop=0 speed=1.01x    frame=  434 fps= 30 q=24.0 size=    4018kB time=00:00:14.46 bitrate=2275.3kbits/s dup=4 drop=0 speed=1.01x    frame=  449 fps= 30 q=24.0 size=    4140kB time=00:00:14.96 bitrate=2266.2kbits/s dup=4 drop=0 speed=1.01x    frame=  466 fps= 30 q=24.0 size=    4318kB time=00:00:15.50 bitrate=2281.9kbits/s dup=4 drop=0 speed=1.01x    frame=  481 fps= 30 q=26.0 size=    4440kB time=00:00:16.03 bitrate=2268.4kbits/s dup=4 drop=0 speed=1.01x    frame=  497 fps= 30 q=24.0 size=    4595kB time=00:00:16.56 bitrate=2272.2kbits/s dup=4 drop=0 speed=1.01x    frame=  513 fps= 30 q=25.0 size=    4749kB time=00:00:17.10 bitrate=2274.9kbits/s dup=4 drop=0 speed=1.01x    frame=  528 fps= 30 q=24.0 size=    4881kB time=00:00:17.60 bitrate=2272.1kbits/s dup=4 drop=0 speed=   1x    frame=  543 fps= 30 q=24.0 size=    5029kB time=00:00:18.10 bitrate=2275.9kbits/s dup=4 drop=0 speed=   1x    frame=  559 fps= 30 q=24.0 size=    5153kB time=00:00:18.63 bitrate=2265.3kbits/s dup=4 drop=0 speed=   1x    frame=  574 fps= 30 q=24.0 size=    5289kB time=00:00:19.13 bitrate=2264.7kbits/s dup=4 drop=0 speed=   1x    frame=  591 fps= 30 q=24.0 size=    5412kB time=00:00:19.66 bitrate=2254.5kbits/s dup=4 drop=0 speed=   1x    frame=  605 fps= 30 q=24.0 size=    5548kB time=00:00:20.16 bitrate=2253.9kbits/s dup=4 drop=0 speed=   1x    frame=  622 fps= 30 q=23.0 size=    5689kB time=00:00:20.73 bitrate=2247.7kbits/s dup=5 drop=0 speed=1.01x    frame=  637 fps= 30 q=23.0 size=    5834kB time=00:00:21.23 bitrate=2250.9kbits/s dup=5 drop=0 speed=1.01x    frame=  652 fps= 30 q=24.0 size=    5950kB time=00:00:21.73 bitrate=2242.7kbits/s dup=5 drop=0 speed=   1x    frame=  667 fps= 30 q=23.0 size=    6093kB time=00:00:22.23 bitrate=2244.9kbits/s dup=5 drop=0 speed=   1x    frame=  682 fps= 30 q=23.0 size=    6222kB time=00:00:22.73 bitrate=2242.2kbits/s dup=5 drop=0 speed=   1x    frame=  697 fps= 30 q=23.0 size=    6365kB time=00:00:23.23 bitrate=2244.4kbits/s dup=5 drop=0 speed=   1x    frame=  713 fps= 30 q=23.0 size=    6492kB time=00:00:23.76 bitrate=2237.7kbits/s dup=5 drop=0 speed=   1x    frame=  728 fps= 30 q=23.0 size=    6633kB time=00:00:24.26 bitrate=2239.2kbits/s dup=5 drop=0 speed=   1x    frame=  743 fps= 30 q=23.0 size=    6752kB time=00:00:24.76 bitrate=2233.4kbits/s dup=5 drop=0 speed=   1x    frame=  758 fps= 30 q=23.0 size=    6895kB time=00:00:25.26 bitrate=2235.6kbits/s dup=5 drop=0 speed=   1x    frame=  774 fps= 30 q=23.0 size=    7030kB time=00:00:25.80 bitrate=2232.0kbits/s dup=5 drop=0 speed=   1x    frame=  789 fps= 30 q=23.0 size=    7172kB time=00:00:26.30 bitrate=2233.9kbits/s dup=5 drop=0 speed=   1x    frame=  804 fps= 30 q=23.0 size=    7291kB time=00:00:26.80 bitrate=2228.5kbits/s dup=5 drop=0 speed=   1x    frame=  820 fps= 30 q=24.0 size=    7438kB time=00:00:27.33 bitrate=2229.2kbits/s dup=5 drop=0 speed=   1x    frame=  835 fps= 30 q=24.0 size=    7551kB time=00:00:27.83 bitrate=2222.4kbits/s dup=5 drop=0 speed=   1x    frame=  851 fps= 30 q=24.0 size=    7696kB time=00:00:28.36 bitrate=2222.6kbits/s dup=6 drop=0 speed=   1x    frame=  867 fps= 30 q=24.0 size=    7817kB time=00:00:28.90 bitrate=2215.8kbits/s dup=6 drop=0 speed=   1x    frame=  883 fps= 30 q=24.0 size=    7963kB time=00:00:29.43 bitrate=2216.2kbits/s dup=6 drop=0 speed=   1x    frame=  899 fps= 30 q=23.0 size=    8104kB time=00:00:29.96 bitrate=2215.3kbits/s dup=6 drop=0 speed=   1x    frame=  915 fps= 30 q=23.0 size=    8262kB time=00:00:30.50 bitrate=2219.2kbits/s dup=6 drop=0 speed=   1x    frame=  930 fps= 30 q=21.0 size=    8398kB time=00:00:31.00 bitrate=2219.2kbits/s dup=6 drop=0 speed=   1x    frame=  945 fps= 30 q=23.0 size=    8541kB time=00:00:31.50 bitrate=2221.3kbits/s dup=6 drop=0 speed=   1x    frame=  960 fps= 30 q=21.0 size=    8673kB time=00:00:32.00 bitrate=2220.3kbits/s dup=6 drop=0 speed=   1x    frame=  975 fps= 30 q=24.0 size=    8816kB time=00:00:32.50 bitrate=2222.3kbits/s dup=6 drop=0 speed=   1x    frame=  991 fps= 30 q=26.0 size=    8944kB time=00:00:33.03 bitrate=2217.9kbits/s dup=6 drop=0 speed=   1x    frame= 1007 fps= 30 q=23.0 size=    9092kB time=00:00:33.56 bitrate=2218.9kbits/s dup=6 drop=0 speed=   1x    frame= 1023 fps= 30 q=24.0 size=    9262kB time=00:00:34.10 bitrate=2225.1kbits/s dup=6 drop=0 speed=   1x    frame= 1038 fps= 30 q=23.0 size=    9385kB time=00:00:34.60 bitrate=2222.0kbits/s dup=6 drop=0 speed=   1x    frame= 1053 fps= 30 q=24.0 size=    9544kB time=00:00:35.10 bitrate=2227.5kbits/s dup=6 drop=0 speed=   1x    frame= 1069 fps= 30 q=23.0 size=    9680kB time=00:00:35.63 bitrate=2225.4kbits/s dup=7 drop=0 speed=   1x    frame= 1084 fps= 30 q=25.0 size=    9831kB time=00:00:36.13 bitrate=2228.9kbits/s dup=7 drop=0 speed=   1x    frame= 1100 fps= 30 q=25.0 size=    9973kB time=00:00:36.66 bitrate=2228.1kbits/s dup=7 drop=0 speed=   1x    frame= 1115 fps= 30 q=26.0 size=   10122kB time=00:00:37.16 bitrate=2231.1kbits/s dup=7 drop=0 speed=   1x    frame= 1130 fps= 30 q=25.0 size=   10254kB time=00:00:37.66 bitrate=2230.1kbits/s dup=7 drop=0 speed=   1x    frame= 1145 fps= 30 q=24.0 size=   10404kB time=00:00:38.16 bitrate=2233.0kbits/s dup=7 drop=0 speed=   1x    frame= 1161 fps= 30 q=24.0 size=   10532kB time=00:00:38.70 bitrate=2229.4kbits/s dup=7 drop=0 speed=   1x    frame= 1176 fps= 30 q=24.0 size=   10674kB time=00:00:39.20 bitrate=2230.7kbits/s dup=7 drop=0 speed=   1x    frame= 1191 fps= 30 q=23.0 size=   10787kB time=00:00:39.70 bitrate=2225.9kbits/s dup=7 drop=0 speed=   1x    frame= 1207 fps= 30 q=23.0 size=   10944kB time=00:00:40.23 bitrate=2228.2kbits/s dup=7 drop=0 speed=   1x    frame= 1222 fps= 30 q=23.0 size=   11071kB time=00:00:40.73 bitrate=2226.5kbits/s dup=7 drop=0 speed=   1x    frame= 1238 fps= 30 q=24.0 size=   11229kB time=00:00:41.26 bitrate=2229.1kbits/s dup=7 drop=0 speed=   1x    frame= 1253 fps= 30 q=24.0 size=   11347kB time=00:00:41.76 bitrate=2225.7kbits/s dup=7 drop=0 speed=   1x    frame= 1268 fps= 30 q=23.0 size=   11489kB time=00:00:42.26 bitrate=2226.8kbits/s dup=7 drop=0 speed=   1x    frame= 1284 fps= 30 q=23.0 size=   11627kB time=00:00:42.80 bitrate=2225.4kbits/s dup=7 drop=0 speed=   1x    frame= 1301 fps= 30 q=24.0 size=   11795kB time=00:00:43.36 bitrate=2228.1kbits/s dup=8 drop=0 speed=   1x    frame= 1316 fps= 30 q=24.0 size=   11937kB time=00:00:43.86 bitrate=2229.2kbits/s dup=8 drop=0 speed=   1x    frame= 1331 fps= 30 q=24.0 size=   12108kB time=00:00:44.36 bitrate=2235.7kbits/s dup=8 drop=0 speed=   1x    frame= 1346 fps= 30 q=26.0 size=   12262kB time=00:00:44.86 bitrate=2238.8kbits/s dup=8 drop=0 speed=   1x    frame= 1361 fps= 30 q=24.0 size=   12425kB time=00:00:45.36 bitrate=2243.6kbits/s dup=8 drop=0 speed=   1x    frame= 1376 fps= 30 q=24.0 size=   12578kB time=00:00:45.86 bitrate=2246.5kbits/s dup=8 drop=0 speed=   1x    frame= 1391 fps= 30 q=24.0 size=   12747kB time=00:00:46.36 bitrate=2252.2kbits/s dup=8 drop=0 speed=   1x    frame= 1407 fps= 30 q=24.0 size=   12900kB time=00:00:46.90 bitrate=2253.2kbits/s dup=8 drop=0 speed=   1x    frame= 1422 fps= 30 q=24.0 size=   13061kB time=00:00:47.40 bitrate=2257.3kbits/s dup=8 drop=0 speed=   1x    frame= 1438 fps= 30 q=24.0 size=   13189kB time=00:00:47.93 bitrate=2254.1kbits/s dup=8 drop=0 speed=   1x    frame= 1453 fps= 30 q=23.0 size=   13334kB time=00:00:48.43 bitrate=2255.3kbits/s dup=8 drop=0 speed=   1x    frame= 1468 fps= 30 q=24.0 size=   13464kB time=00:00:48.93 bitrate=2254.1kbits/s dup=8 drop=0 speed=   1x    frame= 1484 fps= 30 q=23.0 size=   13620kB time=00:00:49.46 bitrate=2255.6kbits/s dup=8 drop=0 speed=   1x    frame= 1499 fps= 30 q=23.0 size=   13756kB time=00:00:49.96 bitrate=2255.2kbits/s dup=8 drop=0 speed=   1x    frame= 1514 fps= 30 q=24.0 size=   13906kB time=00:00:50.46 bitrate=2257.2kbits/s dup=8 drop=0 speed=   1x    frame= 1530 fps= 30 q=21.0 size=   14041kB time=00:00:51.00 bitrate=2255.3kbits/s dup=9 drop=0 speed=   1x    frame= 1546 fps= 30 q=24.0 size=   14191kB time=00:00:51.53 bitrate=2255.9kbits/s dup=9 drop=0 speed=   1x    frame= 1561 fps= 30 q=26.0 size=   14324kB time=00:00:52.03 bitrate=2255.1kbits/s dup=9 drop=0 speed=   1x    frame= 1576 fps= 30 q=23.0 size=   14463kB time=00:00:52.53 bitrate=2255.3kbits/s dup=9 drop=0 speed=   1x    frame= 1591 fps= 30 q=26.0 size=   14600kB time=00:00:53.03 bitrate=2255.2kbits/s dup=9 drop=0 speed=   1x    frame= 1607 fps= 30 q=24.0 size=   14751kB time=00:00:53.53 bitrate=2257.2kbits/s dup=9 drop=0 speed=   1x    frame= 1621 fps= 30 q=26.0 size=   14867kB time=00:00:54.03 bitrate=2253.9kbits/s dup=9 drop=0 speed=   1x    frame= 1636 fps= 30 q=24.0 size=   15010kB time=00:00:54.53 bitrate=2254.8kbits/s dup=9 drop=0 speed=   1x    frame= 1651 fps= 30 q=26.0 size=   15129kB time=00:00:55.03 bitrate=2252.1kbits/s dup=9 drop=0 speed=   1x    frame= 1666 fps= 30 q=24.0 size=   15266kB time=00:00:55.53 bitrate=2251.9kbits/s dup=9 drop=0 speed=   1x    frame= 1681 fps= 30 q=27.0 size=   15418kB time=00:00:56.03 bitrate=2254.1kbits/s dup=9 drop=0 speed=   1x    frame= 1696 fps= 30 q=26.0 size=   15592kB time=00:00:56.53 bitrate=2259.4kbits/s dup=9 drop=0 speed=   1x    frame= 1712 fps= 30 q=26.0 size=   15790kB time=00:00:57.06 bitrate=2266.7kbits/s dup=9 drop=0 speed=   1x    frame= 1727 fps= 30 q=25.0 size=   15940kB time=00:00:57.56 bitrate=2268.4kbits/s dup=9 drop=0 speed=   1x    frame= 1742 fps= 30 q=25.0 size=   16118kB time=00:00:58.06 bitrate=2273.8kbits/s dup=9 drop=0 speed=   1x    frame= 1759 fps= 30 q=24.0 size=   16273kB time=00:00:58.63 bitrate=2273.6kbits/s dup=10 drop=0 speed=   1x    frame= 1774 fps= 30 q=25.0 size=   16444kB time=00:00:59.13 bitrate=2278.0kbits/s dup=10 drop=0 speed=   1x    frame= 1789 fps= 30 q=24.0 size=   16582kB time=00:00:59.63 bitrate=2277.9kbits/s dup=10 drop=0 speed=   1x    frame= 1804 fps= 30 q=24.0 size=   16735kB time=00:01:00.13 bitrate=2279.8kbits/s dup=10 drop=0 speed=   1x    frame= 1819 fps= 30 q=24.0 size=   16860kB time=00:01:00.63 bitrate=2278.0kbits/s dup=10 drop=0 speed=   1x    frame= 1834 fps= 30 q=25.0 size=   17025kB time=00:01:01.13 bitrate=2281.4kbits/s dup=10 drop=0 speed=   1x    frame= 1849 fps= 30 q=24.0 size=   17172kB time=00:01:01.63 bitrate=2282.4kbits/s dup=10 drop=0 speed=   1x    frame= 1864 fps= 30 q=24.0 size=   17331kB time=00:01:02.13 bitrate=2285.0kbits/s dup=10 drop=0 speed=   1x    frame= 1879 fps= 30 q=24.0 size=   17454kB time=00:01:02.63 bitrate=2282.8kbits/s dup=10 drop=0 speed=   1x    frame= 1895 fps= 30 q=25.0 size=   17620kB time=00:01:03.16 bitrate=2285.2kbits/s dup=10 drop=0 speed=   1x    frame= 1910 fps= 30 q=24.0 size=   17769kB time=00:01:03.66 bitrate=2286.3kbits/s dup=10 drop=0 speed=   1x    frame= 1925 fps= 30 q=24.0 size=   17929kB time=00:01:04.16 bitrate=2288.9kbits/s dup=10 drop=0 speed=   1x    [vost#0:0/libx264 @ 0x582dc473ee00] Error submitting a packet to the muxer: Broken pipe
[out#0/h264 @ 0x582dc473db00] Error muxing a packet
[out#0/h264 @ 0x582dc473db00] Error writing trailer: Broken pipe
[out#0/h264 @ 0x582dc473db00] Error closing file: Broken pipe
[out#0/h264 @ 0x582dc473db00] video:17994kB audio:0kB subtitle:0kB other streams:0kB global headers:0kB muxing overhead: unknown
frame= 1932 fps= 30 q=24.0 Lsize=   17986kB time=00:01:04.40 bitrate=2287.9kbits/s dup=10 drop=0 speed=   1x    
[libx264 @ 0x582dc473f1c0] frame I:65    Avg QP:21.06  size: 37951
[libx264 @ 0x582dc473f1c0] frame P:1868  Avg QP:24.00  size:  8548
[libx264 @ 0x582dc473f1c0] mb I  I16..4: 100.0%  0.0%  0.0%
[libx264 @ 0x582dc473f1c0] mb P  I16..4:  2.2%  0.0%  0.0%  P16..4: 63.3%  0.0%  0.0%  0.0%  0.0%    skip:34.5%
[libx264 @ 0x582dc473f1c0] coded y,uvDC,uvAC intra: 57.7% 66.9% 42.7% inter: 28.2% 33.9% 1.8%
[libx264 @ 0x582dc473f1c0] i16 v,h,dc,p: 17% 40% 18% 24%
[libx264 @ 0x582dc473f1c0] i8c dc,h,v,p: 53% 21% 16% 10%
[libx264 @ 0x582dc473f1c0] kb/s:2288.72
Conversion failed!
